<mxfile host="app.diagrams.net" modified="2020-12-10T07:29:02.391Z" agent="5.0 (Windows NT 10.0; Win64; x64) AppleWebKit/537.36 (KHTML, like Gecko) Chrome/87.0.4280.66 Safari/537.36" etag="BI9Cw1eNXOpID2nPnweV" version="14.0.0" type="github">
  <diagram id="FQHFcgTa46m1Gj-98hHh" name="Page-1">
    <mxGraphModel dx="1302" dy="581" grid="1" gridSize="10" guides="1" tooltips="1" connect="1" arrows="1" fold="1" page="1" pageScale="1" pageWidth="827" pageHeight="1169" math="0" shadow="0">
      <root>
        <mxCell id="0" />
        <mxCell id="1" parent="0" />
        <mxCell id="5f6JWEaIux71a6SdWT7D-3" value="用户键入手机1的账号" style="rounded=1;whiteSpace=wrap;html=1;fontSize=12;glass=0;strokeWidth=1;shadow=0;" parent="1" vertex="1">
          <mxGeometry x="780" y="166" width="122" height="40" as="geometry" />
        </mxCell>
        <mxCell id="5f6JWEaIux71a6SdWT7D-4" value="在文件夹里寻找内容包含账号的所有文件，以及以这些名开头的文件&lt;br&gt;" style="rounded=1;whiteSpace=wrap;html=1;fontSize=12;glass=0;strokeWidth=1;shadow=0;" parent="1" vertex="1">
          <mxGeometry x="775" y="225" width="130" height="50" as="geometry" />
        </mxCell>
        <mxCell id="5f6JWEaIux71a6SdWT7D-6" value="" style="edgeStyle=orthogonalEdgeStyle;rounded=0;orthogonalLoop=1;jettySize=auto;html=1;exitX=0.5;exitY=1;exitDx=0;exitDy=0;" parent="1" source="5f6JWEaIux71a6SdWT7D-3" edge="1">
          <mxGeometry relative="1" as="geometry">
            <mxPoint x="240" y="-140" as="sourcePoint" />
            <mxPoint x="841" y="226" as="targetPoint" />
          </mxGeometry>
        </mxCell>
        <mxCell id="5f6JWEaIux71a6SdWT7D-8" value="是否为缓存文件" style="rhombus;whiteSpace=wrap;html=1;shadow=0;fontFamily=Helvetica;fontSize=12;align=center;strokeWidth=1;spacing=6;spacingTop=-4;" parent="1" vertex="1">
          <mxGeometry x="782" y="304" width="116" height="56" as="geometry" />
        </mxCell>
        <mxCell id="5f6JWEaIux71a6SdWT7D-9" value="No&lt;br&gt;" style="edgeStyle=orthogonalEdgeStyle;rounded=0;html=1;jettySize=auto;orthogonalLoop=1;fontSize=11;endArrow=block;endFill=0;endSize=8;strokeWidth=1;shadow=0;labelBackgroundColor=none;exitX=0.5;exitY=1;exitDx=0;exitDy=0;entryX=0.5;entryY=0;entryDx=0;entryDy=0;" parent="1" source="5f6JWEaIux71a6SdWT7D-8" target="5f6JWEaIux71a6SdWT7D-11" edge="1">
          <mxGeometry y="10" relative="1" as="geometry">
            <mxPoint as="offset" />
            <mxPoint x="840.5" y="384" as="sourcePoint" />
            <mxPoint x="840.5" y="435" as="targetPoint" />
          </mxGeometry>
        </mxCell>
        <mxCell id="5f6JWEaIux71a6SdWT7D-10" value="" style="edgeStyle=orthogonalEdgeStyle;rounded=0;orthogonalLoop=1;jettySize=auto;html=1;exitX=0.5;exitY=1;exitDx=0;exitDy=0;entryX=0.5;entryY=0;entryDx=0;entryDy=0;" parent="1" source="5f6JWEaIux71a6SdWT7D-4" target="5f6JWEaIux71a6SdWT7D-8" edge="1">
          <mxGeometry relative="1" as="geometry">
            <mxPoint x="851" y="216" as="sourcePoint" />
            <mxPoint x="851" y="236" as="targetPoint" />
          </mxGeometry>
        </mxCell>
        <mxCell id="5f6JWEaIux71a6SdWT7D-11" value="该游戏是否支持&lt;br&gt;切换账户" style="rhombus;whiteSpace=wrap;html=1;shadow=0;fontFamily=Helvetica;fontSize=12;align=center;strokeWidth=1;spacing=6;spacingTop=-4;" parent="1" vertex="1">
          <mxGeometry x="783" y="390" width="116" height="60" as="geometry" />
        </mxCell>
        <mxCell id="5f6JWEaIux71a6SdWT7D-13" value="" style="edgeStyle=orthogonalEdgeStyle;rounded=0;orthogonalLoop=1;jettySize=auto;html=1;" parent="1" source="5f6JWEaIux71a6SdWT7D-16" target="5f6JWEaIux71a6SdWT7D-18" edge="1">
          <mxGeometry relative="1" as="geometry">
            <mxPoint x="662" y="500" as="sourcePoint" />
          </mxGeometry>
        </mxCell>
        <mxCell id="5f6JWEaIux71a6SdWT7D-14" value="手机1登录手机2账号，获取登录前到登录成功时间段内修改的文件" style="rounded=1;whiteSpace=wrap;html=1;fontSize=12;glass=0;strokeWidth=1;shadow=0;" parent="1" vertex="1">
          <mxGeometry x="590" y="390" width="120" height="60" as="geometry" />
        </mxCell>
        <mxCell id="5f6JWEaIux71a6SdWT7D-15" value="Yes" style="edgeStyle=orthogonalEdgeStyle;rounded=0;html=1;jettySize=auto;orthogonalLoop=1;fontSize=11;endArrow=block;endFill=0;endSize=8;strokeWidth=1;shadow=0;labelBackgroundColor=none;exitX=0;exitY=0.5;exitDx=0;exitDy=0;entryX=1;entryY=0.5;entryDx=0;entryDy=0;" parent="1" source="5f6JWEaIux71a6SdWT7D-11" target="5f6JWEaIux71a6SdWT7D-14" edge="1">
          <mxGeometry x="-0.0959" y="-10" relative="1" as="geometry">
            <mxPoint as="offset" />
            <mxPoint x="782" y="475" as="sourcePoint" />
            <mxPoint x="720" y="450" as="targetPoint" />
            <Array as="points" />
          </mxGeometry>
        </mxCell>
        <mxCell id="5f6JWEaIux71a6SdWT7D-17" value="" style="edgeStyle=orthogonalEdgeStyle;rounded=0;orthogonalLoop=1;jettySize=auto;html=1;" parent="1" source="5f6JWEaIux71a6SdWT7D-18" target="5f6JWEaIux71a6SdWT7D-23" edge="1">
          <mxGeometry relative="1" as="geometry">
            <Array as="points">
              <mxPoint x="654" y="670" />
              <mxPoint x="654" y="670" />
            </Array>
          </mxGeometry>
        </mxCell>
        <mxCell id="5f6JWEaIux71a6SdWT7D-18" value="获取两次都修改的文件" style="rounded=1;whiteSpace=wrap;html=1;fontSize=12;glass=0;strokeWidth=1;shadow=0;" parent="1" vertex="1">
          <mxGeometry x="589" y="557" width="130" height="50" as="geometry" />
        </mxCell>
        <mxCell id="5f6JWEaIux71a6SdWT7D-20" value="手机1重新登录，获取的登录前到登录成功时间段内修改的文件&lt;br&gt;" style="rounded=1;whiteSpace=wrap;html=1;fontSize=12;glass=0;strokeWidth=1;shadow=0;" parent="1" vertex="1">
          <mxGeometry x="777" y="480" width="128" height="50" as="geometry" />
        </mxCell>
        <mxCell id="5f6JWEaIux71a6SdWT7D-21" value="" style="edgeStyle=orthogonalEdgeStyle;rounded=0;orthogonalLoop=1;jettySize=auto;html=1;entryX=0.5;entryY=0;entryDx=0;entryDy=0;exitX=0.5;exitY=1;exitDx=0;exitDy=0;" parent="1" source="5f6JWEaIux71a6SdWT7D-20" target="5f6JWEaIux71a6SdWT7D-24" edge="1">
          <mxGeometry relative="1" as="geometry">
            <mxPoint x="843" y="605" as="sourcePoint" />
            <mxPoint x="842.5" y="645" as="targetPoint" />
            <Array as="points" />
          </mxGeometry>
        </mxCell>
        <mxCell id="5f6JWEaIux71a6SdWT7D-22" value="No" style="edgeStyle=orthogonalEdgeStyle;rounded=0;html=1;jettySize=auto;orthogonalLoop=1;fontSize=11;endArrow=block;endFill=0;endSize=8;strokeWidth=1;shadow=0;labelBackgroundColor=none;exitX=0.5;exitY=1;exitDx=0;exitDy=0;" parent="1" edge="1">
          <mxGeometry x="-0.25" y="-23" relative="1" as="geometry">
            <mxPoint as="offset" />
            <mxPoint x="841" y="450" as="sourcePoint" />
            <mxPoint x="843" y="480" as="targetPoint" />
            <Array as="points">
              <mxPoint x="843" y="450" />
            </Array>
          </mxGeometry>
        </mxCell>
        <mxCell id="5f6JWEaIux71a6SdWT7D-23" value="是否为缓存文件" style="rhombus;whiteSpace=wrap;html=1;shadow=0;fontFamily=Helvetica;fontSize=12;align=center;strokeWidth=1;spacing=6;spacingTop=-4;" parent="1" vertex="1">
          <mxGeometry x="596" y="649" width="116" height="50" as="geometry" />
        </mxCell>
        <mxCell id="5f6JWEaIux71a6SdWT7D-24" value="是否为缓存文件" style="rhombus;whiteSpace=wrap;html=1;shadow=0;fontFamily=Helvetica;fontSize=12;align=center;strokeWidth=1;spacing=6;spacingTop=-4;" parent="1" vertex="1">
          <mxGeometry x="783" y="562" width="116" height="45" as="geometry" />
        </mxCell>
        <mxCell id="5f6JWEaIux71a6SdWT7D-46" value="" style="edgeStyle=orthogonalEdgeStyle;rounded=0;orthogonalLoop=1;jettySize=auto;html=1;" parent="1" source="5f6JWEaIux71a6SdWT7D-26" target="5f6JWEaIux71a6SdWT7D-23" edge="1">
          <mxGeometry relative="1" as="geometry" />
        </mxCell>
        <mxCell id="5f6JWEaIux71a6SdWT7D-26" value="手机1重新登录，获取的登录前到登录成功时间段内访问的文件" style="rounded=1;whiteSpace=wrap;html=1;fontSize=12;glass=0;strokeWidth=1;shadow=0;" parent="1" vertex="1">
          <mxGeometry x="777" y="648" width="135" height="52" as="geometry" />
        </mxCell>
        <mxCell id="5f6JWEaIux71a6SdWT7D-27" value="No&lt;br&gt;" style="edgeStyle=orthogonalEdgeStyle;rounded=0;html=1;jettySize=auto;orthogonalLoop=1;fontSize=11;endArrow=block;endFill=0;endSize=8;strokeWidth=1;shadow=0;labelBackgroundColor=none;exitX=0.5;exitY=1;exitDx=0;exitDy=0;" parent="1" edge="1">
          <mxGeometry x="0.1817" relative="1" as="geometry">
            <mxPoint as="offset" />
            <mxPoint x="837.5" y="607" as="sourcePoint" />
            <mxPoint x="840" y="648" as="targetPoint" />
            <Array as="points">
              <mxPoint x="840.5" y="607" />
              <mxPoint x="840.5" y="628" />
            </Array>
          </mxGeometry>
        </mxCell>
        <mxCell id="5f6JWEaIux71a6SdWT7D-28" value="查找到缓存文件" style="rounded=1;whiteSpace=wrap;html=1;fontSize=12;glass=0;strokeWidth=1;shadow=0;" parent="1" vertex="1">
          <mxGeometry x="787" y="735" width="115" height="44" as="geometry" />
        </mxCell>
        <mxCell id="5f6JWEaIux71a6SdWT7D-30" value="Yes" style="edgeStyle=orthogonalEdgeStyle;rounded=0;html=1;jettySize=auto;orthogonalLoop=1;fontSize=11;endArrow=block;endFill=0;endSize=8;strokeWidth=1;shadow=0;labelBackgroundColor=none;exitX=1;exitY=0.5;exitDx=0;exitDy=0;entryX=1;entryY=0.5;entryDx=0;entryDy=0;" parent="1" source="5f6JWEaIux71a6SdWT7D-8" target="5f6JWEaIux71a6SdWT7D-28" edge="1">
          <mxGeometry y="10" relative="1" as="geometry">
            <mxPoint as="offset" />
            <mxPoint x="802" y="495" as="sourcePoint" />
            <mxPoint x="940" y="789" as="targetPoint" />
            <Array as="points">
              <mxPoint x="990" y="332" />
              <mxPoint x="990" y="789" />
              <mxPoint x="925" y="789" />
            </Array>
          </mxGeometry>
        </mxCell>
        <mxCell id="5f6JWEaIux71a6SdWT7D-31" value="No" style="edgeStyle=orthogonalEdgeStyle;rounded=0;html=1;jettySize=auto;orthogonalLoop=1;fontSize=11;endArrow=block;endFill=0;endSize=8;strokeWidth=1;shadow=0;labelBackgroundColor=none;exitX=0;exitY=0.5;exitDx=0;exitDy=0;entryX=0.5;entryY=0;entryDx=0;entryDy=0;" parent="1" source="5f6JWEaIux71a6SdWT7D-23" target="5f6JWEaIux71a6SdWT7D-32" edge="1">
          <mxGeometry y="10" relative="1" as="geometry">
            <mxPoint as="offset" />
            <mxPoint x="672" y="805" as="sourcePoint" />
            <mxPoint x="590" y="953" as="targetPoint" />
            <Array as="points">
              <mxPoint x="548" y="674" />
              <mxPoint x="548" y="730" />
            </Array>
          </mxGeometry>
        </mxCell>
        <mxCell id="5f6JWEaIux71a6SdWT7D-32" value="清理手机1的缓存后重新登录，获取期间&lt;br&gt;修改的文件" style="rounded=1;whiteSpace=wrap;html=1;fontSize=12;glass=0;strokeWidth=1;shadow=0;" parent="1" vertex="1">
          <mxGeometry x="490" y="731" width="115" height="52" as="geometry" />
        </mxCell>
        <mxCell id="5f6JWEaIux71a6SdWT7D-16" value="切换到另外一个账号，获取切换前到切换成功时间段内修改的文件" style="rounded=1;whiteSpace=wrap;html=1;fontSize=12;glass=0;strokeWidth=1;shadow=0;" parent="1" vertex="1">
          <mxGeometry x="590" y="469" width="128" height="50" as="geometry" />
        </mxCell>
        <mxCell id="5f6JWEaIux71a6SdWT7D-36" style="edgeStyle=orthogonalEdgeStyle;rounded=0;orthogonalLoop=1;jettySize=auto;html=1;entryX=0.5;entryY=0;entryDx=0;entryDy=0;" parent="1" source="5f6JWEaIux71a6SdWT7D-16" target="5f6JWEaIux71a6SdWT7D-16" edge="1">
          <mxGeometry relative="1" as="geometry">
            <Array as="points">
              <mxPoint x="655" y="494" />
              <mxPoint x="655" y="469" />
            </Array>
          </mxGeometry>
        </mxCell>
        <mxCell id="5f6JWEaIux71a6SdWT7D-37" value="" style="edgeStyle=orthogonalEdgeStyle;rounded=0;orthogonalLoop=1;jettySize=auto;html=1;exitX=0.5;exitY=1;exitDx=0;exitDy=0;entryX=0.5;entryY=0;entryDx=0;entryDy=0;" parent="1" source="5f6JWEaIux71a6SdWT7D-14" target="5f6JWEaIux71a6SdWT7D-16" edge="1">
          <mxGeometry relative="1" as="geometry">
            <mxPoint x="850" y="285" as="sourcePoint" />
            <mxPoint x="850" y="314" as="targetPoint" />
          </mxGeometry>
        </mxCell>
        <mxCell id="ZJoxNUcZrUbeSV-1HF51-1" value="是否为缓存文件" style="rhombus;whiteSpace=wrap;html=1;shadow=0;fontFamily=Helvetica;fontSize=12;align=center;strokeWidth=1;spacing=6;spacingTop=-4;" vertex="1" parent="1">
          <mxGeometry x="640" y="730" width="116" height="53" as="geometry" />
        </mxCell>
        <mxCell id="ZJoxNUcZrUbeSV-1HF51-6" value="" style="edgeStyle=orthogonalEdgeStyle;rounded=0;orthogonalLoop=1;jettySize=auto;html=1;exitX=1;exitY=0.5;exitDx=0;exitDy=0;" edge="1" parent="1" source="5f6JWEaIux71a6SdWT7D-32">
          <mxGeometry relative="1" as="geometry">
            <Array as="points">
              <mxPoint x="640" y="757" />
            </Array>
            <mxPoint x="664" y="617" as="sourcePoint" />
            <mxPoint x="640" y="757" as="targetPoint" />
          </mxGeometry>
        </mxCell>
        <mxCell id="ZJoxNUcZrUbeSV-1HF51-9" value="Yes" style="edgeStyle=orthogonalEdgeStyle;rounded=0;html=1;jettySize=auto;orthogonalLoop=1;fontSize=11;endArrow=block;endFill=0;endSize=8;strokeWidth=1;shadow=0;labelBackgroundColor=none;exitX=0.5;exitY=1;exitDx=0;exitDy=0;entryX=0;entryY=0.5;entryDx=0;entryDy=0;" edge="1" parent="1" source="5f6JWEaIux71a6SdWT7D-23" target="5f6JWEaIux71a6SdWT7D-28">
          <mxGeometry x="0.644" y="10" relative="1" as="geometry">
            <mxPoint as="offset" />
            <mxPoint x="908" y="342" as="sourcePoint" />
            <mxPoint x="912" y="767" as="targetPoint" />
            <Array as="points">
              <mxPoint x="654" y="710" />
              <mxPoint x="770" y="710" />
              <mxPoint x="770" y="757" />
            </Array>
          </mxGeometry>
        </mxCell>
        <mxCell id="ZJoxNUcZrUbeSV-1HF51-14" value="" style="endArrow=none;html=1;exitX=1;exitY=0.5;exitDx=0;exitDy=0;" edge="1" parent="1" source="ZJoxNUcZrUbeSV-1HF51-1">
          <mxGeometry width="50" height="50" relative="1" as="geometry">
            <mxPoint x="730" y="830" as="sourcePoint" />
            <mxPoint x="770" y="757" as="targetPoint" />
          </mxGeometry>
        </mxCell>
        <mxCell id="ZJoxNUcZrUbeSV-1HF51-16" value="直接使用文件夹作为缓存文件" style="rounded=1;whiteSpace=wrap;html=1;fontSize=12;glass=0;strokeWidth=1;shadow=0;" vertex="1" parent="1">
          <mxGeometry x="614" y="810" width="167" height="52" as="geometry" />
        </mxCell>
        <mxCell id="ZJoxNUcZrUbeSV-1HF51-17" value="No&lt;br&gt;" style="edgeStyle=orthogonalEdgeStyle;rounded=0;html=1;jettySize=auto;orthogonalLoop=1;fontSize=11;endArrow=block;endFill=0;endSize=8;strokeWidth=1;shadow=0;labelBackgroundColor=none;entryX=0.5;entryY=0;entryDx=0;entryDy=0;" edge="1" parent="1" target="ZJoxNUcZrUbeSV-1HF51-16">
          <mxGeometry y="10" relative="1" as="geometry">
            <mxPoint as="offset" />
            <mxPoint x="697" y="780" as="sourcePoint" />
            <mxPoint x="851" y="400" as="targetPoint" />
          </mxGeometry>
        </mxCell>
      </root>
    </mxGraphModel>
  </diagram>
</mxfile>
